<mxfile host="65bd71144e">
    <diagram id="B4Pw52ZKqgWbd1RuszE3" name="Page-1">
        <mxGraphModel dx="610" dy="526" grid="1" gridSize="10" guides="1" tooltips="1" connect="1" arrows="1" fold="1" page="1" pageScale="1" pageWidth="850" pageHeight="1100" math="0" shadow="0">
            <root>
                <mxCell id="0"/>
                <mxCell id="1" parent="0"/>
                <mxCell id="2" value="users" style="swimlane;childLayout=stackLayout;horizontal=1;startSize=30;horizontalStack=0;rounded=1;fontSize=14;fontStyle=0;strokeWidth=2;resizeParent=0;resizeLast=1;shadow=0;dashed=0;align=center;" parent="1" vertex="1">
                    <mxGeometry x="40" y="40" width="170" height="241" as="geometry"/>
                </mxCell>
                <mxCell id="3" value="first_name VARCHAR(50)&#10;last_name VARCHAR(50)&#10;email VARCHAR(255)&#10;password VARCHAR(255)&#10;phone VARCHAR(20)&#10;city VARCHAR (50)&#10;country VARCHAR(50)&#10;address VARCHAR(255)&#10;image_url VARCHA(255)&#10;role VARCHAR(20)&#10;last_fetched_at  TIMESTAMP&#10;created_at TIMESTAMP&#10;updated_at  TIMESTAMP&#10;deleted_at  TIMESTAMP" style="align=left;strokeColor=none;fillColor=none;spacingLeft=4;fontSize=12;verticalAlign=top;resizable=0;rotatable=0;part=1;" parent="2" vertex="1">
                    <mxGeometry y="30" width="170" height="211" as="geometry"/>
                </mxCell>
                <mxCell id="4" value="customers" style="swimlane;childLayout=stackLayout;horizontal=1;startSize=30;horizontalStack=0;rounded=1;fontSize=14;fontStyle=0;strokeWidth=2;resizeParent=0;resizeLast=1;shadow=0;dashed=0;align=center;" parent="1" vertex="1">
                    <mxGeometry x="520" y="40" width="170" height="220" as="geometry"/>
                </mxCell>
                <mxCell id="5" value="first_name VARCHAR(50)&#10;last_name VARCHAR(50)&#10;email VARCHAR(255)&#10;phone VARCHAR(20)&#10;currency VARCHAR(20)&#10;city VARCHAR (50)&#10;country VARCHAR(50)&#10;address VARCHAR(255)&#10;role VARCHAR(20)&#10;created_at TIMESTAMP&#10;updated_at  TIMESTAMP&#10;deleted_at  TIMESTAMP" style="align=left;strokeColor=none;fillColor=none;spacingLeft=4;fontSize=12;verticalAlign=top;resizable=0;rotatable=0;part=1;" parent="4" vertex="1">
                    <mxGeometry y="30" width="170" height="190" as="geometry"/>
                </mxCell>
                <mxCell id="7" value="cards" style="swimlane;childLayout=stackLayout;horizontal=1;startSize=30;horizontalStack=0;rounded=1;fontSize=14;fontStyle=0;strokeWidth=2;resizeParent=0;resizeLast=1;shadow=0;dashed=0;align=center;" parent="1" vertex="1">
                    <mxGeometry x="310" y="360" width="170" height="240" as="geometry"/>
                </mxCell>
                <mxCell id="8" value="cc_number VARCHAR(255)&#10;customer_id VARCHAR(255)&#10;brand VARCHAR(50)&#10;type VARCHAR(50)&#10;exp_month VARCHAR(20)&#10;exp_year VARCHAR(20)&#10;cvv VARCHAR(20)&#10;pin VARCHAR(20)&#10;balance VARCHAR(255)&#10;status VARCHAR(50)&#10;created_at TIMESTAMP&#10;updated_at TIMESTAMP&#10;deleted_at TIMESTAMP" style="align=left;strokeColor=none;fillColor=none;spacingLeft=4;fontSize=12;verticalAlign=top;resizable=0;rotatable=0;part=1;" parent="7" vertex="1">
                    <mxGeometry y="30" width="170" height="210" as="geometry"/>
                </mxCell>
                <mxCell id="11" value="" style="edgeStyle=orthogonalEdgeStyle;fontSize=12;html=1;endArrow=ERmany;startArrow=ERmany;exitX=1;exitY=0.25;exitDx=0;exitDy=0;entryX=0.005;entryY=0.581;entryDx=0;entryDy=0;entryPerimeter=0;" parent="1" source="3" target="5" edge="1">
                    <mxGeometry width="100" height="100" relative="1" as="geometry">
                        <mxPoint x="350" y="200" as="sourcePoint"/>
                        <mxPoint x="450" y="100" as="targetPoint"/>
                        <Array as="points">
                            <mxPoint x="210" y="120"/>
                            <mxPoint x="360" y="120"/>
                            <mxPoint x="360" y="180"/>
                        </Array>
                    </mxGeometry>
                </mxCell>
                <mxCell id="12" value="" style="edgeStyle=elbowEdgeStyle;fontSize=12;html=1;endArrow=ERoneToMany;" edge="1" parent="1" target="7">
                    <mxGeometry width="100" height="100" relative="1" as="geometry">
                        <mxPoint x="690" y="160" as="sourcePoint"/>
                        <mxPoint x="523" y="576.5" as="targetPoint"/>
                        <Array as="points">
                            <mxPoint x="740" y="230"/>
                            <mxPoint x="710" y="110"/>
                            <mxPoint x="760" y="150"/>
                            <mxPoint x="760" y="280"/>
                        </Array>
                    </mxGeometry>
                </mxCell>
            </root>
        </mxGraphModel>
    </diagram>
</mxfile>